Coordinates
version=1
nRows=12
nColumns=28
inDegrees=yes

Units are S.I. units (second, meters, Newtons, ...)
Angles are in degrees.

endheader
time	pelvis_tilt	pelvis_list	pelvis_rotation	pelvis_tx	pelvis_ty	pelvis_tz	hip_flexion_r	hip_adduction_r	hip_rotation_r	knee_angle_r	ankle_angle_r	subtalar_angle_r	mtp_angle_r	hip_flexion_l	hip_adduction_l	hip_rotation_l	knee_angle_l	socket_flexion	socket_adduction	socket_rotation	socket_tx	socket_ty	socket_tz	foot_flex	lumbar_extension	lumbar_bending	lumbar_rotation
      0.95000000	      3.44729755	      0.08820436	     -1.93559671	      0.41568377	      1.03863283	      0.32627549	      1.66205792	      3.09438010	     -5.60677306	    -18.73950036	      6.41997113	     -5.13941224	     16.92281898	     12.72123196	     -1.20403640	     -0.81668600	    -65.60830698	     -6.33969256	      0.00000000	      0.00000000	      0.00000000	      0.03141303	      0.00000000	      0.41159384	    -11.34627390	     -0.08068430	      3.50788624
      0.95416667	      3.38658054	      0.20655897	     -2.14396431	      0.42043248	      1.03934967	      0.32677608	      1.27992767	      2.94390755	     -5.60312532	    -18.41965454	      6.34922191	     -4.79565993	     17.04912704	     13.36888421	     -1.07751649	     -0.77954211	    -65.25467155	     -6.39618488	      0.00000000	      0.00000000	      0.00000000	      0.03158474	      0.00000000	      0.41300347	    -11.34082619	     -0.26355330	      3.71120701
      0.95833333	      3.30386152	      0.32857032	     -2.37198365	      0.42521606	      1.04001690	      0.32721576	      0.93123263	      2.77344506	     -5.60021449	    -18.11566300	      6.22194564	     -4.32943081	     17.24883448	     13.98286114	     -0.92308123	     -0.70016335	    -64.77528068	     -6.40030946	      0.00000000	      0.00000000	      0.00000000	      0.03153127	      0.00000000	      0.42039560	    -11.28843537	     -0.44392943	      3.99163723
      0.96250000	      3.23715753	      0.52000551	     -2.71273118	      0.43014812	      1.04063920	      0.32781428	      0.67604570	      2.46788843	     -5.81612803	    -18.02717292	      6.16206603	     -3.38671820	     18.06123786	     14.37221083	     -0.71663595	     -0.73687274	    -63.87240447	     -6.21782361	      0.00000000	      0.00000000	      0.00000000	      0.03049690	      0.00000000	      0.42221868	    -11.23922558	     -0.74716638	      4.48807401
      0.96666667	      3.22029801	      0.60462637	     -2.89532027	      0.43473425	      1.04128702	      0.32824001	      0.24701179	      2.35908969	     -5.77301876	    -17.68397238	      6.14858065	     -3.21306716	     18.15882920	     14.97508599	     -0.59956295	     -0.60235135	    -63.47743853	     -6.30057072	      0.00000000	      0.00000000	      0.00000000	      0.03078174	      0.00000000	      0.42518775	    -11.28945855	     -0.88000401	      4.52948301
      0.97083333	      3.16178692	      0.67414390	     -3.08045897	      0.43950274	      1.04186755	      0.32868508	     -0.15289700	      2.25936941	     -5.78120650	    -17.32128444	      5.95565600	     -2.92041975	     18.33546905	     15.48644806	     -0.50156030	     -0.45810346	    -62.80167263	     -6.25470754	      0.00000000	      0.00000000	      0.00000000	      0.03041564	      0.00000000	      0.43717574	    -11.27622196	     -0.99331624	      4.67243267
      0.97500000	      3.18098522	      0.65968305	     -3.32953533	      0.44375661	      1.04232574	      0.32912020	     -0.43909377	      2.21773672	     -5.83244929	    -17.32238631	      5.96309612	     -2.89966295	     18.34301357	     16.04419594	     -0.51054026	     -0.36141045	    -62.40580851	     -6.37588312	      0.00000000	      0.00000000	      0.00000000	      0.03050544	      0.00000000	      0.46542676	    -11.42750841	     -1.01172242	      4.68353832
      0.97916667	      3.05498097	      0.77877515	     -3.42644077	      0.44867689	      1.04281026	      0.32952389	     -0.92190596	      2.11598601	     -5.66616628	    -16.66541115	      5.88076351	     -2.56194216	     18.44915109	     16.61972409	     -0.33494113	     -0.10468743	    -61.68342700	     -6.33864146	      0.00000000	      0.00000000	      0.00000000	      0.03031050	      0.00000000	      0.42346992	    -11.30261052	     -1.19881448	      4.86566507
      0.98333333	      3.06251209	      0.76464175	     -3.67668841	      0.45290018	      1.04317921	      0.32998954	     -1.20007213	      2.07451837	     -5.71672595	    -16.64490484	      5.86894809	     -2.52600091	     18.45860181	     17.17205465	     -0.34844661	      0.01053714	    -61.22813687	     -6.44951188	      0.00000000	      0.00000000	      0.00000000	      0.03048704	      0.00000000	      0.45574979	    -11.44983146	     -1.20933418	      4.88964855
      0.98750000	      3.32345774	      1.01708085	     -4.06785134	      0.45850258	      1.04433327	      0.33079103	     -2.11771343	      1.73996528	     -5.54222835	    -15.95006886	      5.46674480	     -1.83307223	     19.53500696	     16.51998672	     -0.03580398	      0.10356166	    -58.84610750	     -5.63753512	      0.00000000	      0.00000000	      0.00000000	      0.02676297	      0.00000000	      0.43982778	    -11.65658457	     -1.63514097	      5.50886079
      0.99166667	      3.33214047	      0.99539308	     -4.29626358	      0.46264372	      1.04457577	      0.33129922	     -2.38764599	      1.71212346	     -5.60220159	    -15.95142934	      5.47481923	     -1.82038160	     19.53726111	     17.09306502	     -0.07729025	      0.20699860	    -58.42126388	     -5.79442071	      0.00000000	      0.00000000	      0.00000000	      0.02712874	      0.00000000	      0.47449054	    -11.82372100	     -1.65580924	      5.51256714
      0.99583333	      3.14563116	      1.01423738	     -4.30880195	      0.46741794	      1.04475972	      0.33146217	     -2.81322791	      1.72721478	     -5.42018615	    -15.27635233	      5.45256507	     -1.55686378	     19.60307363	     17.70539341	      0.02674512	      0.65456106	    -57.59993660	     -5.73902150	      0.00000000	      0.00000000	      0.00000000	      0.02686530	      0.00000000	      0.40310323	    -11.65309634	     -1.69841391	      5.63739406
